<?xml version="1.0" encoding="UTF-8" standalone="no"?>
<!-- Created with Inkscape (http://www.inkscape.org/) -->

<svg
   xmlns:dc="http://purl.org/dc/elements/1.1/"
   xmlns:cc="http://creativecommons.org/ns#"
   xmlns:rdf="http://www.w3.org/1999/02/22-rdf-syntax-ns#"
   xmlns:svg="http://www.w3.org/2000/svg"
   xmlns="http://www.w3.org/2000/svg"
   xmlns:sodipodi="http://sodipodi.sourceforge.net/DTD/sodipodi-0.dtd"
   xmlns:inkscape="http://www.inkscape.org/namespaces/inkscape"
   width="77"
   height="48"
   id="svg5955"
   version="1.1"
   inkscape:version="0.48.2 r9819"
   sodipodi:docname="hiker.svg">
  <defs
     id="defs5957" />
  <sodipodi:namedview
     id="base"
     pagecolor="#ffffff"
     bordercolor="#666666"
     borderopacity="1.0"
     inkscape:pageopacity="0.0"
     inkscape:pageshadow="2"
     inkscape:zoom="8"
     inkscape:cx="16.375"
     inkscape:cy="24"
     inkscape:document-units="px"
     inkscape:current-layer="layer1"
     showgrid="false"
     inkscape:window-width="1276"
     inkscape:window-height="756"
     inkscape:window-x="4"
     inkscape:window-y="0"
     inkscape:window-maximized="1"
     showguides="true"
     inkscape:guide-bbox="true" />
  <metadata
     id="metadata5960">
    <rdf:RDF>
      <cc:Work
         rdf:about="">
        <dc:format>image/svg+xml</dc:format>
        <dc:type
           rdf:resource="http://purl.org/dc/dcmitype/StillImage" />
        <dc:title />
      </cc:Work>
    </rdf:RDF>
  </metadata>
  <g
     inkscape:label="Layer 1"
     inkscape:groupmode="layer"
     id="layer1"
     transform="translate(0,-1004.3622)">
    <circle
       sodipodi:ry="1.357"
       sodipodi:rx="1.357"
       sodipodi:cy="269.048"
       sodipodi:cx="569.77698"
       d="m 571.13398,269.048 c 0,0.74945 -0.60755,1.357 -1.357,1.357 -0.74945,0 -1.357,-0.60755 -1.357,-1.357 0,-0.74945 0.60755,-1.357 1.357,-1.357 0.74945,0 1.357,0.60755 1.357,1.357 z"
       id="circle2382"
       r="1.357"
       cy="269.048"
       cx="569.77698"
       transform="matrix(3.0904149,0,0,2.7680575,-1722.3473,263.5031)"
       style="fill:#272b30;fill-opacity:1" />
    <path
       inkscape:connector-curvature="0"
       id="path2384"
       d="m 31.413731,1012.6198 c 0.160702,-0.5786 -0.250323,-1.1543 -0.880768,-1.2982 l -3.495259,-0.7557 c -0.655168,-0.1329 -1.301064,0.2103 -1.449404,0.7889 l -2.935894,10.8867 c -0.160702,0.5785 0.234871,1.1543 0.880768,1.2982 l 3.50453,0.7557 c 0.633536,0.144 1.288704,-0.2131 1.440134,-0.7889 l 2.935893,-10.8867 z"
       style="fill:#272b30;fill-opacity:1" />
    <path
       inkscape:connector-curvature="0"
       id="path2386"
       d="m 47.536426,1051.3366 c 0,0.022 -0.0093,0.045 -0.0093,0.055 0,0.4817 0.429568,0.8692 0.96421,0.8692 0.485195,0 0.89313,-0.335 0.954938,-0.7556 l 7.036874,-34.1911 c 0,-0.022 0,-0.045 0,-0.064 0,-0.4679 -0.420296,-0.8581 -0.954938,-0.8581 -0.482104,0 -0.852954,0.3321 -0.954938,0.7529 l -7.036874,34.1911 z"
       style="stroke:none;stroke-opacity:1;fill:#272b30;fill-opacity:1" />
    <path
       inkscape:connector-curvature="0"
       id="path2388"
       d="m 24.126534,1049.0972 c -0.04017,0.1744 -0.05254,0.3543 -0.05254,0.5315 0,1.4643 1.313427,2.6435 2.948256,2.6435 1.34124,0 2.466151,-0.7999 2.824639,-1.8879 l 5.06828,-18.7923 4.830319,18.6789 c 0.312132,1.157 1.474128,2.0013 2.849363,2.0013 1.637919,0 2.948256,-1.1792 2.948256,-2.6435 0,-0.2021 -0.02163,-0.3903 -0.06181,-0.5785 l -6.628941,-24.8129 0.556275,-2.1868 0.435748,1.719 c 0.398664,1.121 1.535937,1.2318 1.535937,1.2318 l 6.826726,1.5528 c 0.135979,0.025 0.271956,0.036 0.411026,0.036 1.112548,0 2.018041,-0.8 2.018041,-1.7965 0,-0.8554 -0.658259,-1.575 -1.551389,-1.766 l -5.905783,-1.3287 -1.625558,-5.9043 c -0.766423,-3.2967 -4.286405,-3.2193 -4.286405,-3.2193 -3.414909,-0.077 -4.277135,3.1418 -4.277135,3.1418 l -8.863309,33.3801 z"
       style="fill:#272b30;fill-opacity:1" />
  </g>
</svg>
