<?xml version="1.0" encoding="UTF-8" standalone="no"?>
<!-- Created with Inkscape (http://www.inkscape.org/) -->

<svg
   xmlns:dc="http://purl.org/dc/elements/1.1/"
   xmlns:cc="http://creativecommons.org/ns#"
   xmlns:rdf="http://www.w3.org/1999/02/22-rdf-syntax-ns#"
   xmlns:svg="http://www.w3.org/2000/svg"
   xmlns="http://www.w3.org/2000/svg"
   xmlns:sodipodi="http://sodipodi.sourceforge.net/DTD/sodipodi-0.dtd"
   xmlns:inkscape="http://www.inkscape.org/namespaces/inkscape"
   width="77"
   height="48"
   id="svg5999"
   version="1.1"
   inkscape:version="0.48.2 r9819"
   sodipodi:docname="bikers.svg">
  <defs
     id="defs6001" />
  <sodipodi:namedview
     id="base"
     pagecolor="#ffffff"
     bordercolor="#666666"
     borderopacity="1.0"
     inkscape:pageopacity="0.0"
     inkscape:pageshadow="2"
     inkscape:zoom="8.40625"
     inkscape:cx="40.078779"
     inkscape:cy="32.206618"
     inkscape:current-layer="layer1"
     showgrid="true"
     inkscape:document-units="px"
     inkscape:grid-bbox="true"
     showguides="true"
     inkscape:guide-bbox="true"
     inkscape:window-width="1276"
     inkscape:window-height="756"
     inkscape:window-x="4"
     inkscape:window-y="0"
     inkscape:window-maximized="1" />
  <metadata
     id="metadata6004">
    <rdf:RDF>
      <cc:Work
         rdf:about="">
        <dc:format>image/svg+xml</dc:format>
        <dc:type
           rdf:resource="http://purl.org/dc/dcmitype/StillImage" />
        <dc:title />
      </cc:Work>
    </rdf:RDF>
  </metadata>
  <g
     id="layer1"
     inkscape:label="Layer 1"
     inkscape:groupmode="layer"
     transform="translate(0,-16)">
    <path
       inkscape:connector-curvature="0"
       id="path2650"
       d="m 11.417799,61.856091 c 5.124837,0 9.282069,-4.162368 9.282069,-9.29743 0,-5.131904 -4.157232,-9.294273 -9.282069,-9.294273 -5.1090776,0 -9.2663098,4.162369 -9.2663098,9.294273 -0.00315,5.135062 4.1540802,9.29743 9.2663098,9.29743 z M 0.0397791,52.555502 c 0,-6.303557 5.1059258,-11.400721 11.3780199,-11.400721 6.294157,0 11.390627,5.100323 11.390627,11.400721 0,6.306716 -5.099622,11.40388 -11.390627,11.40388 -6.2752459,0.0032 -11.3780199,-5.097164 -11.3780199,-11.40388 z"
       style="fill:#272b30;fill-opacity:1" />
    <circle
       sodipodi:ry="1.357"
       sodipodi:rx="1.357"
       sodipodi:cy="135.701"
       sodipodi:cx="11.858"
       d="m 13.215,135.701 c 0,0.74945 -0.60755,1.357 -1.357,1.357 -0.749451,0 -1.357,-0.60755 -1.357,-1.357 0,-0.74945 0.607549,-1.357 1.357,-1.357 0.74945,0 1.357,0.60755 1.357,1.357 z"
       id="circle2654"
       r="1.357"
       cy="135.701"
       cx="11.858"
       transform="matrix(3.151806,0,0,3.1580947,-3.8085759,-408.00208)"
       style="fill:#272b30;fill-opacity:1" />
    <path
       inkscape:connector-curvature="0"
       id="path2656"
       d="m 31.369627,32.860525 -2.185097,-3.046462 -5.739439,5.690886 5.320248,2.804388 c 2.184202,1.051646 1.856414,2.974925 1.856414,2.974925 l 0,12.06708 c 0,1.367455 -1.09998,2.482263 -2.464712,2.482263 -1.364732,0 -2.461561,-1.114808 -2.461561,-2.482263 l 0,-9.660611 -9.225336,-5.131904 c -1.09998,-0.612671 -1.843806,-1.79064 -1.843806,-3.13283 0,-0.922164 0.340395,-1.771691 0.920327,-2.406468 l 9.045683,-9.082681 c 1.125195,-1.272712 2.691643,-1.070594 2.691643,-1.070594 1.897387,0 2.893358,1.658 2.893358,1.658 l 4.223506,6.071917 c 1.886445,2.61229 -1.481,4.692026 -3.031228,2.264354 z"
       sodipodi:nodetypes="cccccsssccscccccc"
       style="fill:#272b30;fill-opacity:1" />
    <path
       inkscape:connector-curvature="0"
       id="path2652-7"
       d="m 65.176043,61.893551 c 5.112229,0 9.269461,-4.162369 9.269461,-9.294273 0,-5.13822 -4.157232,-9.300589 -9.269461,-9.300589 -5.121685,0 -9.278917,4.162369 -9.278917,9.300589 0,5.131904 4.157232,9.294273 9.278917,9.294273 z M 53.788568,52.599278 c 0,-6.306715 5.102774,-11.40388 11.390627,-11.40388 6.275245,0 11.378019,5.100323 11.378019,11.40388 C 76.557214,58.899677 71.451289,64 65.179195,64 58.891342,63.9968 53.788568,58.899677 53.788568,52.599278 z"
       style="fill:#272b30;fill-opacity:1" />
    <circle
       sodipodi:ry="1.357"
       sodipodi:rx="1.357"
       sodipodi:cy="135.701"
       sodipodi:cx="11.858"
       d="m 13.215,135.701 c 0,0.74945 -0.60755,1.357 -1.357,1.357 -0.749451,0 -1.357,-0.60755 -1.357,-1.357 0,-0.74945 0.607549,-1.357 1.357,-1.357 0.74945,0 1.357,0.60755 1.357,1.357 z"
       id="circle2654-4"
       r="1.357"
       cy="135.701"
       cx="11.858"
       transform="matrix(3.151806,0,0,3.1580947,16.442818,-408.07516)"
       style="fill:#272b30;fill-opacity:1" />
    <path
       inkscape:connector-curvature="0"
       id="path2656-8"
       d="m 53.996587,35.172911 c -0.617754,0.01263 -1.289089,-0.29686 -1.78077,-1.07691 l -2.779893,-4.355012 -5.739439,5.690886 5.320248,2.804388 c 2.184202,1.051646 1.856414,2.974925 1.856414,2.974925 v 12.06708 c 0,1.367455 -1.09998,2.482263 -2.464712,2.482263 -1.364732,0 -2.461561,-1.114808 -2.461561,-2.482263 v -9.660611 l -9.225336,-5.131904 c -1.09998,-0.612671 -1.843806,-1.79064 -1.843806,-3.13283 0,-0.922164 0.340395,-1.771691 0.920327,-2.406468 l 9.045683,-9.082681 c 1.125195,-1.272712 2.691643,-1.070594 2.691643,-1.070594 1.897387,0 2.893358,1.658 2.893358,1.658 l 4.699342,7.380467 7.138841,-0.0095 c 2.56557,0 2.56557,3.353897 0,3.353897 h -8.270339 z"
       style="fill:#272b30;fill-opacity:1" />
    <path
       style="fill:none;stroke:#272b30;stroke-width:2;stroke-linecap:round;stroke-linejoin:miter;stroke-miterlimit:4;stroke-opacity:1;stroke-dasharray:none"
       d="M 43.765516,48.633686 32.612635,49.906558"
       id="path6924"
       inkscape:connector-curvature="0" />
  </g>
</svg>
