<?xml version="1.0" encoding="UTF-8" standalone="no"?>
<!-- Created with Inkscape (http://www.inkscape.org/) -->

<svg
   xmlns:dc="http://purl.org/dc/elements/1.1/"
   xmlns:cc="http://creativecommons.org/ns#"
   xmlns:rdf="http://www.w3.org/1999/02/22-rdf-syntax-ns#"
   xmlns:svg="http://www.w3.org/2000/svg"
   xmlns="http://www.w3.org/2000/svg"
   xmlns:sodipodi="http://sodipodi.sourceforge.net/DTD/sodipodi-0.dtd"
   xmlns:inkscape="http://www.inkscape.org/namespaces/inkscape"
   width="77"
   height="48"
   id="svg5955"
   version="1.1"
   inkscape:version="0.48.2 r9819"
   sodipodi:docname="hiker.svg">
  <defs
     id="defs5957" />
  <sodipodi:namedview
     id="base"
     pagecolor="#ffffff"
     bordercolor="#666666"
     borderopacity="1.0"
     inkscape:pageopacity="0.0"
     inkscape:pageshadow="2"
     inkscape:zoom="8"
     inkscape:cx="38.5"
     inkscape:cy="24"
     inkscape:document-units="px"
     inkscape:current-layer="layer1"
     showgrid="false"
     inkscape:window-width="1195"
     inkscape:window-height="747"
     inkscape:window-x="6"
     inkscape:window-y="0"
     inkscape:window-maximized="0"
     showguides="true"
     inkscape:guide-bbox="true" />
  <metadata
     id="metadata5960">
    <rdf:RDF>
      <cc:Work
         rdf:about="">
        <dc:format>image/svg+xml</dc:format>
        <dc:type
           rdf:resource="http://purl.org/dc/dcmitype/StillImage" />
        <dc:title />
      </cc:Work>
    </rdf:RDF>
  </metadata>
  <g
     inkscape:label="Layer 1"
     inkscape:groupmode="layer"
     id="layer1"
     transform="translate(0,-1004.3622)">
    <g
       id="g2992"
       transform="matrix(0.97833407,0,0,0.87622619,22.676804,130.17798)">
      <circle
         transform="matrix(3.1588544,0,0,3.1590673,-1783.6689,152.15834)"
         cx="569.77698"
         cy="269.048"
         r="1.357"
         id="circle2382"
         d="m 571.13398,269.048 c 0,0.74945 -0.60755,1.357 -1.357,1.357 -0.74945,0 -1.357,-0.60755 -1.357,-1.357 0,-0.74945 0.60755,-1.357 1.357,-1.357 0.74945,0 1.357,0.60755 1.357,1.357 z"
         sodipodi:cx="569.77698"
         sodipodi:cy="269.048"
         sodipodi:rx="1.357"
         sodipodi:ry="1.357" />
      <path
         d="m 8.9304129,1007.0936 c 0.164261,-0.6603 -0.255867,-1.3173 -0.900273,-1.4816 l -3.5726646,-0.8624 c -0.669677,-0.1517 -1.329877,0.24 -1.481502,0.9003 l -3.00091199,12.4246 c -0.16426,0.6602 0.240073,1.3173 0.900274,1.4816 l 3.58213999,0.8624 c 0.647566,0.1643 1.317243,-0.2432 1.472027,-0.9003 l 3.0009106,-12.4246 z"
         id="path2384"
         inkscape:connector-curvature="0" />
      <path
         d="m 25.410157,1051.2795 c 0,0.025 -0.0095,0.051 -0.0095,0.063 0,0.5497 0.439081,0.992 0.985563,0.992 0.49594,0 0.912909,-0.3823 0.976086,-0.8624 l 7.192711,-39.0208 c 0,-0.025 0,-0.051 0,-0.073 0,-0.5339 -0.429604,-0.9793 -0.976086,-0.9793 -0.492781,0 -0.871844,0.3791 -0.976086,0.8593 l -7.192711,39.0208 z"
         id="path2386"
         inkscape:connector-curvature="0" />
      <path
         d="m 1.4818353,1048.7238 c -0.04106,0.199 -0.0537,0.4043 -0.0537,0.6065 0,1.6712 1.342513,3.0169 3.013547,3.0169 1.370943,0 2.520766,-0.9129 2.887193,-2.1545 l 5.1805207,-21.4469 4.93729,21.3174 c 0.319044,1.3205 1.506773,2.284 2.912464,2.284 1.674192,0 3.013547,-1.3457 3.013547,-3.0169 0,-0.2306 -0.02211,-0.4454 -0.06318,-0.6602 l -6.775743,-28.3179 0.568594,-2.4957 0.445398,1.9618 c 0.407492,1.2794 1.569951,1.4058 1.569951,1.4058 l 6.977909,1.7722 c 0.13899,0.029 0.277979,0.041 0.420128,0.041 1.137187,0 2.062732,-0.913 2.062732,-2.0502 0,-0.9762 -0.672836,-1.7975 -1.585745,-2.0155 l -6.036571,-1.5164 -1.661557,-6.7383 c -0.783396,-3.7624 -4.381331,-3.674 -4.381331,-3.674 -3.490535,-0.088 -4.371855,3.5856 -4.371855,3.5856 l -9.0595937,38.0952 z"
         id="path2388"
         inkscape:connector-curvature="0" />
    </g>
  </g>
</svg>
